<svg xmlns="http://www.w3.org/2000/svg" viewBox="0 0 512 512" width="512" height="512">
  <rect width="512" height="512" fill="#212529"/>
  <rect x="64" y="96" width="384" height="320" rx="24" stroke="#FFFFFF" stroke-width="16" fill="none"/>
  <rect x="104" y="136" width="80" height="240" rx="12" fill="#FFFFFF" opacity="0.15"/>
  <rect x="216" y="136" width="80" height="240" rx="12" fill="#FFFFFF" opacity="0.35"/>
  <rect x="328" y="136" width="80" height="240" rx="12" fill="#FFFFFF" opacity="0.7"/>
  <rect x="116" y="160" width="56" height="28" rx="6" fill="#FFFFFF"/>
  <rect x="116" y="200" width="56" height="28" rx="6" fill="#FFFFFF"/>
  <rect x="228" y="160" width="56" height="28" rx="6" fill="#FFFFFF"/>
  <rect x="228" y="200" width="56" height="28" rx="6" fill="#FFFFFF"/>
  <rect x="228" y="240" width="56" height="28" rx="6" fill="#FFFFFF"/>
  <rect x="340" y="160" width="56" height="28" rx="6" fill="#FFFFFF"/>
  <rect x="340" y="200" width="56" height="28" rx="6" fill="#FFFFFF"/>
  <path d="M348 300 L370 322 L408 278" stroke="#FFFFFF" stroke-width="12" stroke-linecap="round" stroke-linejoin="round" fill="none"/>
</svg>